<?xml version="1.0" encoding="UTF-8"?><svg id="Calque_1" xmlns="http://www.w3.org/2000/svg" viewBox="0 0 233.95 40"><defs><style>.cls-1{fill:#26507d;}.cls-1,.cls-2,.cls-3{stroke-width:0px;}.cls-2{fill:#fff;}.cls-3{fill:#008a8c;}</style></defs><path class="cls-1" d="m49.24,32.34V8.33h10.19c1.75,0,3.27.22,4.55.67s2.29,1.15,3.01,2.12c.72.97,1.08,2.26,1.08,3.87,0,1.08-.26,1.97-.79,2.66-.53.7-1.16,1.25-1.91,1.67s-1.44.75-2.09.99l-.65-1.26c1.32.05,2.48.32,3.47.81s1.78,1.18,2.34,2.05.85,1.93.85,3.15c0,1.68-.4,3.05-1.21,4.12-.8,1.07-1.88,1.86-3.22,2.38-1.34.52-2.83.77-4.46.77h-11.16Zm5.83-14.58h4.68c.41,0,.79-.08,1.15-.23.36-.16.65-.4.88-.74.23-.34.34-.78.34-1.33,0-.98-.26-1.66-.79-2.03-.53-.37-1.18-.56-1.94-.56h-4.32v4.9Zm0,10.08h4.9c.6,0,1.15-.09,1.66-.27.5-.18.91-.49,1.22-.94.31-.44.47-1.04.47-1.78,0-.55-.1-1.01-.29-1.37-.19-.36-.45-.64-.77-.85-.32-.2-.69-.35-1.1-.45-.41-.1-.84-.14-1.3-.14h-4.79v5.8Z"/><path class="cls-1" d="m81.42,32.88c-3.07,0-5.38-.82-6.93-2.47s-2.32-4.06-2.32-7.25c0-3.43.79-5.9,2.36-7.4,1.57-1.5,3.87-2.25,6.89-2.25,2.04,0,3.75.34,5.13,1.03,1.38.68,2.42,1.73,3.13,3.15.71,1.42,1.06,3.24,1.06,5.47,0,3.19-.8,5.61-2.41,7.25-1.61,1.64-3.91,2.47-6.91,2.47Zm0-4.28c.89,0,1.63-.21,2.21-.63s1.03-1.03,1.33-1.84c.3-.8.45-1.79.45-2.97,0-1.34-.15-2.41-.45-3.19-.3-.78-.75-1.34-1.35-1.69-.6-.35-1.33-.52-2.2-.52-.91,0-1.66.18-2.23.54-.58.36-1,.93-1.28,1.71-.28.78-.41,1.83-.41,3.15,0,1.82.32,3.19.95,4.09.64.9,1.62,1.35,2.97,1.35Z"/><path class="cls-1" d="m101.47,32.88c-1.1,0-2.14-.1-3.11-.31-.97-.2-1.82-.54-2.56-1.01-.73-.47-1.3-1.1-1.71-1.91s-.61-1.81-.61-3.01c0-1.13.23-2.11.7-2.95.47-.84,1.18-1.49,2.14-1.94s2.17-.68,3.64-.68c.82,0,1.61.08,2.38.25.77.17,1.46.4,2.07.68s1.1.6,1.46.94l.22,2.59c-.48-.29-1.06-.52-1.73-.68-.67-.17-1.39-.25-2.16-.25-1.18,0-2.03.17-2.57.52s-.81.89-.81,1.64c0,.46.13.86.4,1.22.26.36.62.64,1.06.83.44.19.91.29,1.39.29,1.22,0,2.08-.08,2.57-.25.49-.17.74-.5.74-1.01v-6.7c0-1.1-.35-1.9-1.06-2.39-.71-.49-1.71-.74-3.01-.74-1.06,0-2.12.19-3.19.56-1.07.37-1.94.82-2.61,1.35v-4.75c.62-.38,1.59-.74,2.9-1.08,1.31-.34,2.78-.5,4.41-.5.58,0,1.21.05,1.91.14.7.1,1.39.27,2.09.52.7.25,1.34.62,1.93,1.1.59.48,1.06,1.09,1.42,1.84.36.74.54,1.67.54,2.77l-.04,8.6c0,1.03-.35,1.87-1.04,2.5-.7.64-1.7,1.1-3.01,1.39-1.31.29-2.89.43-4.73.43Z"/><path class="cls-1" d="m120.01,32.34l-7.6-18.22h5.83l5.51,14.04-1.3.04,4.9-14.08h5.65l-7.6,18.22h-5.4Z"/><path class="cls-1" d="m136.29,11.64v-4.14h5.54v4.14h-5.54Zm.11,20.7V14.37h5.36l.04,17.96h-5.4Z"/><path class="cls-1" d="m145.82,32.34v-4.25l9.76-11.05.54,1.12h-10.08v-4.03h14.26v4.18l-9.07,11.12-.18-1.37h9.25v4.28h-14.47Z"/><path class="cls-1" d="m171.74,33.06c-2.11,0-3.68-.5-4.72-1.49-1.03-1-1.55-2.41-1.55-4.23v-9.11h-2.66v-4.1h2.66v-5h5.62v5h4v4.1h-4v8.42c0,.62.13,1.09.4,1.39.26.3.71.45,1.33.45.36,0,.76-.07,1.19-.22.43-.14.79-.32,1.08-.54v4.61c-.5.26-1.05.45-1.64.56-.59.11-1.16.16-1.71.16Z"/><path class="cls-1" d="m177.25,32.34l9.07-24.01h6.37l8.5,24.01h-5.98l-7.67-22.64,2.84-.25-7.63,22.9h-5.51Zm5.11-5.18l1.19-4.28h10.91l.54,4.28h-12.64Z"/><path class="cls-1" d="m210.05,24.45v7.88h-5.83V8.33h10.8c2.81,0,5.02.64,6.62,1.91,1.61,1.27,2.41,3.24,2.41,5.9s-.8,4.72-2.41,6.16c-1.61,1.44-3.82,2.16-6.62,2.16h-4.97Zm0-4.5h4.25c.62,0,1.16-.08,1.6-.25.44-.17.8-.41,1.06-.72.26-.31.46-.68.59-1.1s.2-.87.2-1.35c0-.58-.07-1.08-.2-1.51-.13-.43-.33-.82-.59-1.15-.26-.34-.62-.59-1.06-.76-.44-.17-.98-.25-1.6-.25h-4.25v7.09Z"/><path class="cls-1" d="m228.12,32.34V8.33h5.83v24.01h-5.83Z"/><path class="cls-3" d="m40,0h-19.76c-.08,0-.16,0-.24,0C9.03,0,.13,8.83,0,19.76h0v20.24h20.24c10.94-.13,19.76-9.03,19.76-20,0-.08,0-.16,0-.24h0V0Z"/><ellipse class="cls-2" cx="20" cy="11.86" rx="10.16" ry="3.53"/><path class="cls-2" d="m20,16.7c-5.61,0-10.16-1.58-10.16-3.53v4.2h0c.12,1.91,4.62,3.45,10.15,3.45s10.03-1.54,10.15-3.45v.39s0-4.59,0-4.59c0,1.95-4.55,3.53-10.16,3.53Z"/><path class="cls-2" d="m20,22.17c-5.61,0-10.16-1.58-10.16-3.53v4.2h0c.12,1.91,4.62,3.45,10.15,3.45s10.03-1.54,10.15-3.45v.39s0-4.59,0-4.59c0,1.95-4.55,3.53-10.16,3.53Z"/><path class="cls-2" d="m20,27.55c-5.61,0-10.16-1.58-10.16-3.53v4.2h0c.12,1.91,4.62,3.45,10.15,3.45s10.03-1.54,10.15-3.45v.39s0-4.59,0-4.59c0,1.95-4.55,3.53-10.16,3.53Z"/></svg>